<svg width="14" height="18" viewBox="0 0 14 18" fill="none" xmlns="http://www.w3.org/2000/svg">
<path d="M7.7139 17.2286C7.7139 17.4332 7.63262 17.6294 7.48795 17.7741C7.34327 17.9187 7.14705 18 6.94245 18C6.73784 18 6.54162 17.9187 6.39694 17.7741C6.25227 17.6294 6.17099 17.4332 6.17099 17.2286V7.7139H0.77078C0.618299 7.71377 0.469277 7.66845 0.342536 7.58367C0.215795 7.49889 0.11702 7.37846 0.0586861 7.23758C0.000352126 7.0967 -0.0149242 6.94169 0.0147866 6.79213C0.0444974 6.64257 0.117862 6.50517 0.225616 6.39728L6.39728 0.225616C6.54193 0.0811467 6.73801 0 6.94245 0C7.14688 0 7.34296 0.0811467 7.48761 0.225616L13.6593 6.39728C13.767 6.50517 13.8404 6.64257 13.8701 6.79213C13.8998 6.94169 13.8845 7.0967 13.8262 7.23758C13.7679 7.37846 13.6691 7.49889 13.5424 7.58367C13.4156 7.66845 13.2666 7.71377 13.1141 7.7139H7.7139V17.2286Z" fill="#4B4F50"/>
</svg>
