<svg width="14" height="18" viewBox="0 0 14 18" fill="none" xmlns="http://www.w3.org/2000/svg">
<path d="M6.17109 0.771446C6.17109 0.566844 6.25237 0.370618 6.39704 0.225943C6.54172 0.0812666 6.73794 -1.17715e-05 6.94255 -1.17715e-05C7.14715 -1.17715e-05 7.34337 0.0812666 7.48805 0.225943C7.63273 0.370618 7.714 0.566844 7.714 0.771446L7.714 10.2861L13.1142 10.2861C13.2667 10.2862 13.4157 10.3315 13.5425 10.4163C13.6692 10.5011 13.768 10.6215 13.8263 10.7624C13.8846 10.9033 13.8999 11.0583 13.8702 11.2079C13.8405 11.3574 13.7671 11.4948 13.6594 11.6027L7.48771 17.7744C7.34306 17.9189 7.14698 18 6.94255 18C6.73811 18 6.54203 17.9189 6.39738 17.7744L0.225716 11.6027C0.117962 11.4948 0.0445984 11.3574 0.014888 11.2079C-0.0148223 11.0583 0.000452222 10.9033 0.058786 10.7624C0.11712 10.6215 0.215896 10.5011 0.342637 10.4163C0.469377 10.3315 0.618399 10.2862 0.77088 10.2861L6.17109 10.2861L6.17109 0.771446Z" fill="#4B4F50"/>
</svg>
