<svg width="18" height="14" viewBox="0 0 18 14" fill="none" xmlns="http://www.w3.org/2000/svg">
<path d="M17.2286 6.17098C17.4332 6.17098 17.6294 6.25226 17.7741 6.39694C17.9188 6.54162 18.0001 6.73784 18.0001 6.94244C18.0001 7.14705 17.9188 7.34327 17.7741 7.48795C17.6294 7.63263 17.4332 7.71391 17.2286 7.71391H7.71393V13.1141C7.7138 13.2666 7.66848 13.4156 7.5837 13.5424C7.49892 13.6691 7.37848 13.7679 7.2376 13.8262C7.09672 13.8846 6.94171 13.8998 6.79215 13.8701C6.64259 13.8404 6.50519 13.7671 6.3973 13.6593L0.225616 7.48761C0.081147 7.34296 0 7.14688 0 6.94244C0 6.73801 0.081147 6.54193 0.225616 6.39728L6.3973 0.225591C6.50519 0.117837 6.64259 0.0444729 6.79215 0.0147625C6.94171 -0.0149479 7.09672 0.000326661 7.2376 0.0586606C7.37848 0.116995 7.49892 0.215771 7.5837 0.342512C7.66848 0.469254 7.7138 0.618276 7.71393 0.770758V6.17098H17.2286Z" fill="#4B4F50"/>
</svg>
