<svg width="18" height="14" viewBox="0 0 18 14" fill="none" xmlns="http://www.w3.org/2000/svg">
<path d="M0.771386 7.71393C0.566783 7.71393 0.370557 7.63265 0.225881 7.48797C0.0812041 7.3433 -7.45532e-05 7.14707 -7.45532e-05 6.94247C-7.45532e-05 6.73787 0.0812041 6.54164 0.225881 6.39696C0.370557 6.25229 0.566783 6.17101 0.771386 6.17101L10.2861 6.17101L10.2861 0.770783C10.2862 0.618301 10.3315 0.469279 10.4163 0.342537C10.5011 0.215796 10.6215 0.11702 10.7624 0.0586863C10.9033 0.000352127 11.0583 -0.0149242 11.2078 0.0147867C11.3574 0.0444976 11.4948 0.117863 11.6027 0.225617L17.7744 6.3973C17.9189 6.54195 18 6.73803 18 6.94247C18 7.14691 17.9189 7.34299 17.7744 7.48763L11.6027 13.6593C11.4948 13.7671 11.3574 13.8404 11.2078 13.8702C11.0583 13.8999 10.9033 13.8846 10.7624 13.8263C10.6215 13.7679 10.5011 13.6691 10.4163 13.5424C10.3315 13.4157 10.2862 13.2666 10.2861 13.1142V7.71393L0.771386 7.71393Z" fill="#4B4F50"/>
</svg>
